PathFileType	4	(X/Y/Z)	/tmp/tmpjnq7zxqp/Me/MarkerData/jogging03_segment_0.trc
DataRate	CameraRate	NumFrames	NumMarkers	Units	OrigDataRate	OrigDataStartFrame	OrigNumFrames
100.092	100.092	7	39	m	100.092	0	1086
Frame#	Time	C7			CLAV			LANK			LASI			LBHD			LELB			LFHD			LFIN			LFRM			LHEE			LKNE			LPSI			LSHO			LTHI			LTIB			LTOE			LUPA			LWRA			LWRB			RANK			RASI			RBAK			RBHD			RELB			RFHD			RFIN			RFRM			RHEE			RKNE			RPSI			RSHO			RTHI			RTIB			RTOE			RUPA			RWRA			RWRB			STRN			T10		
		X1	Y1	Z1	X2	Y2	Z2	X3	Y3	Z3	X4	Y4	Z4	X5	Y5	Z5	X6	Y6	Z6	X7	Y7	Z7	X8	Y8	Z8	X9	Y9	Z9	X10	Y10	Z10	X11	Y11	Z11	X12	Y12	Z12	X13	Y13	Z13	X14	Y14	Z14	X15	Y15	Z15	X16	Y16	Z16	X17	Y17	Z17	X18	Y18	Z18	X19	Y19	Z19	X20	Y20	Z20	X21	Y21	Z21	X22	Y22	Z22	X23	Y23	Z23	X24	Y24	Z24	X25	Y25	Z25	X26	Y26	Z26	X27	Y27	Z27	X28	Y28	Z28	X29	Y29	Z29	X30	Y30	Z30	X31	Y31	Z31	X32	Y32	Z32	X33	Y33	Z33	X34	Y34	Z34	X35	Y35	Z35	X36	Y36	Z36	X37	Y37	Z37	X38	Y38	Z38	X39	Y39	Z39

1	0	-0.188904	1.37875	0.0365046	-0.349534	1.29058	0.0678899	-0.156195	0.0917846	0.125746	-0.226814	0.915673	0.193858	-0.265426	1.51898	0.146895	-0.195044	0.988777	0.294827	-0.390617	1.55949	0.154086	-0.475437	1.06153	0.168695	-0.318406	0.964853	0.209724	-0.0815918	0.0656314	0.0767124	-0.379031	0.415149	0.197338	-0.103989	0.9153	0.0469058	-0.216452	1.33582	0.224881	-0.313313	0.596955	0.226553	-0.241069	0.204882	0.17367	-0.322256	0.0619898	0.0608994	-0.222571	1.1608	0.303462	-0.370133	1.04562	0.155415	-0.401882	0.985852	0.176847	0.0523819	0.273151	-0.0820591	-0.271059	0.888943	-0.125507	-0.153775	1.24804	-0.0931683	-0.284665	1.52783	-0.00157958	-0.253658	1.04482	-0.254492	-0.403172	1.55887	0.0243869	-0.457206	0.916338	-0.0177568	-0.288819	0.977921	-0.208966	0.114648	0.313639	-0.00999421	-0.33236	0.39697	-0.105042	-0.114853	0.909842	-0.016035	-0.29977	1.35682	-0.124409	-0.304913	0.722537	-0.139637	-0.206638	0.369115	-0.123567	0.0304257	0.101874	-0.0610166	-0.273762	1.13269	-0.22872	-0.360798	0.961475	-0.0617775	-0.383959	0.900084	-0.093764	-0.374414	1.12494	0.0743409	-0.131257	1.14431	0.0229256
2	0.00999079	-0.186929	1.37786	0.0377693	-0.349312	1.29036	0.0665604	-0.136835	0.0926588	0.125913	-0.225522	0.914446	0.194056	-0.266049	1.51814	0.147357	-0.215547	0.98615	0.295319	-0.391419	1.55838	0.153876	-0.485856	1.07478	0.158863	-0.336372	0.969593	0.205521	-0.061988	0.06655	0.0765752	-0.366755	0.41178	0.199544	-0.101574	0.914895	0.0479132	-0.219256	1.33557	0.226001	-0.306675	0.595215	0.227108	-0.224877	0.203951	0.173865	-0.30243	0.0619096	0.0609914	-0.233624	1.15988	0.304144	-0.382111	1.05361	0.150702	-0.417347	0.995229	0.169615	0.0355252	0.268114	-0.0840257	-0.267859	0.889782	-0.125669	-0.149233	1.24681	-0.089729	-0.28364	1.52784	-0.00101804	-0.239008	1.04915	-0.258341	-0.402539	1.55836	0.0242763	-0.450784	0.914465	-0.0316288	-0.275301	0.98087	-0.215197	0.101441	0.306318	-0.0139426	-0.346276	0.400698	-0.103226	-0.112732	0.909203	-0.0150538	-0.294171	1.35766	-0.124942	-0.306114	0.72392	-0.139221	-0.221555	0.370147	-0.122972	0.00660191	0.0980489	-0.0609219	-0.260889	1.13627	-0.23207	-0.353126	0.962135	-0.0712789	-0.374081	0.900463	-0.104708	-0.37443	1.12486	0.0725873	-0.130253	1.14276	0.0272292
3	0.0199816	-0.186193	1.37892	0.0396948	-0.348964	1.29138	0.0643025	-0.117392	0.0934404	0.125757	-0.224186	0.914302	0.194173	-0.266758	1.51869	0.147809	-0.235554	0.986596	0.296004	-0.392273	1.55851	0.15322	-0.495058	1.08972	0.149303	-0.352983	0.976887	0.201133	-0.0422115	0.0676344	0.0765425	-0.353287	0.408373	0.201108	-0.0996071	0.915706	0.0486124	-0.222666	1.33683	0.226825	-0.29977	0.593949	0.227303	-0.207655	0.203722	0.173496	-0.282556	0.0619245	0.061043	-0.244881	1.16119	0.304825	-0.392566	1.06322	0.145355	-0.431526	1.00663	0.162401	0.0182457	0.262413	-0.0858619	-0.264933	0.891557	-0.125819	-0.144454	1.24717	-0.0866266	-0.282679	1.52912	-0.000669985	-0.224603	1.05551	-0.261651	-0.402095	1.55917	0.0233763	-0.444095	0.914973	-0.045364	-0.262232	0.985748	-0.221229	0.0874878	0.297508	-0.0172867	-0.359536	0.406299	-0.101423	-0.109629	0.910531	-0.0152764	-0.288573	1.36013	-0.125231	-0.307426	0.726954	-0.138778	-0.236138	0.371795	-0.122398	-0.019056	0.0946163	-0.0614704	-0.247929	1.14189	-0.235047	-0.34594	0.964577	-0.0810633	-0.363732	0.902938	-0.11509	-0.374749	1.1259	0.0705075	-0.129481	1.14257	0.0311605
4	0.0299724	-0.186121	1.38149	0.0421313	-0.348464	1.2937	0.0614302	-0.097869	0.0943268	0.125666	-0.222792	0.915197	0.194291	-0.267496	1.52055	0.148012	-0.255052	0.98972	0.296397	-0.393167	1.55992	0.152128	-0.502919	1.1061	0.140087	-0.368457	0.986348	0.196747	-0.0221604	0.0691016	0.0766702	-0.33902	0.405478	0.201333	-0.0982212	0.918003	0.0487505	-0.226257	1.33959	0.227565	-0.292081	0.59327	0.227025	-0.189076	0.204407	0.172926	-0.2626	0.062005	0.0610642	-0.256153	1.16452	0.305257	-0.401832	1.07438	0.139966	-0.444467	1.01984	0.155391	0.000482978	0.255678	-0.0872707	-0.262246	0.894613	-0.125832	-0.139914	1.24899	-0.0836943	-0.281724	1.53166	-0.000659009	-0.210575	1.0636	-0.264569	-0.40157	1.56123	0.0221092	-0.437198	0.917724	-0.0587942	-0.24939	0.992586	-0.226622	0.0727831	0.287172	-0.0199808	-0.37215	0.413585	-0.0997	-0.106555	0.913435	-0.0161403	-0.282991	1.36407	-0.125375	-0.308746	0.731527	-0.13849	-0.250315	0.374037	-0.121859	-0.0463048	0.0910425	-0.0618263	-0.235318	1.14922	-0.237755	-0.338564	0.968926	-0.0904747	-0.35359	0.907447	-0.125127	-0.375305	1.12822	0.0680759	-0.128872	1.14405	0.034367
5	0.0399632	-0.186033	1.38494	0.0446083	-0.348069	1.29734	0.0584588	-0.0783717	0.0954722	0.125758	-0.221607	0.917149	0.194332	-0.268285	1.52362	0.147877	-0.273799	0.995182	0.296312	-0.394088	1.5627	0.150614	-0.509386	1.12357	0.131288	-0.383677	0.997382	0.19286	-0.00228603	0.0708739	0.0767905	-0.323927	0.403614	0.200159	-0.0970767	0.921725	0.0482234	-0.230132	1.34378	0.228126	-0.283213	0.593358	0.2262	-0.17043	0.20541	0.172443	-0.242611	0.0620941	0.0610916	-0.267311	1.16959	0.305211	-0.409988	1.08672	0.134781	-0.456194	1.0345	0.148723	-0.0178338	0.248128	-0.0884055	-0.259732	0.899295	-0.125579	-0.135968	1.25226	-0.0808357	-0.280697	1.53536	-0.00102053	-0.196887	1.07297	-0.266814	-0.400896	1.56455	0.0205398	-0.430173	0.922462	-0.0716805	-0.236692	1.00098	-0.231406	0.0571803	0.275382	-0.0221723	-0.383933	0.42233	-0.0981502	-0.104972	0.917037	-0.0167852	-0.277415	1.36921	-0.125495	-0.309887	0.737493	-0.138508	-0.264081	0.376842	-0.12149	-0.074776	0.0872914	-0.0617018	-0.223199	1.1578	-0.239997	-0.33072	0.974919	-0.0988038	-0.343782	0.913758	-0.13476	-0.376001	1.13192	0.0652459	-0.128379	1.14717	0.0365592
6	0.049954	-0.185536	1.38893	0.0464841	-0.347905	1.30214	0.055661	-0.0591394	0.0970727	0.12603	-0.220737	0.920053	0.194276	-0.269152	1.52781	0.147462	-0.291551	1.00274	0.296102	-0.394996	1.56682	0.14871	-0.514538	1.14168	0.122969	-0.39749	1.00989	0.189046	0.0172509	0.0731578	0.0770377	-0.307626	0.403106	0.198232	-0.0963689	0.926703	0.0475594	-0.234378	1.34927	0.228399	-0.273359	0.594281	0.224848	-0.151755	0.207456	0.171472	-0.22266	0.0621282	0.061216	-0.278365	1.17629	0.304715	-0.416985	1.09986	0.129818	-0.466775	1.05016	0.142461	-0.0368033	0.239822	-0.0893201	-0.257989	0.904881	-0.125367	-0.132597	1.2569	-0.0780863	-0.279636	1.54001	-0.00157987	-0.183483	1.08331	-0.268392	-0.400091	1.56907	0.0185845	-0.423123	0.928869	-0.0838242	-0.224232	1.0105	-0.235719	0.0404563	0.262373	-0.0238525	-0.394699	0.432283	-0.0968491	-0.104516	0.921597	-0.0169743	-0.27206	1.37537	-0.125645	-0.310741	0.744692	-0.138813	-0.277353	0.380198	-0.121301	-0.10389	0.0831008	-0.0614493	-0.211617	1.16741	-0.24173	-0.322902	0.982463	-0.106657	-0.334296	0.92156	-0.143957	-0.376651	1.1369	0.0618872	-0.128246	1.15153	0.0380073
7	0.0599448	-0.184674	1.39344	0.0475337	-0.347975	1.30797	0.0529596	-0.0403465	0.0993199	0.12656	-0.220267	0.923833	0.1941	-0.270076	1.53301	0.146774	-0.308101	1.01202	0.295819	-0.395865	1.57217	0.146413	-0.518561	1.16006	0.115146	-0.410305	1.0233	0.185422	0.0362665	0.0760837	0.0774003	-0.290883	0.404198	0.196103	-0.0955575	0.933099	0.0472772	-0.238989	1.35598	0.228345	-0.263037	0.596127	0.223039	-0.133303	0.210511	0.170649	-0.202698	0.0621493	0.0612962	-0.289386	1.18459	0.303935	-0.423312	1.11375	0.125226	-0.476193	1.06646	0.136596	-0.0564713	0.230898	-0.0900158	-0.256695	0.911338	-0.125214	-0.129689	1.26268	-0.075526	-0.278595	1.54547	-0.00214124	-0.170581	1.09434	-0.269678	-0.399215	1.57468	0.0162472	-0.416089	0.936587	-0.095137	-0.212134	1.02086	-0.239628	0.022501	0.248341	-0.0250081	-0.404325	0.443175	-0.0959007	-0.103821	0.927791	-0.0169871	-0.267008	1.3823	-0.125741	-0.311322	0.752911	-0.139281	-0.289724	0.384173	-0.12108	-0.1339	0.0790699	-0.061271	-0.200555	1.17781	-0.243063	-0.315695	0.991508	-0.114379	-0.325152	0.93052	-0.152723	-0.377114	1.14284	0.057948	-0.128413	1.15693	0.0391256
